HIERARCHY
ROOT Pelvis
{
	OFFSET 0.000000 0.000000 0.000000
	CHANNELS 6 Xposition Yposition Zposition Xrotation Yrotation Zrotation
	JOINT LeftUpLeg_virtual
	{
		OFFSET 0.000000 0.000000 0.000000
		CHANNELS 3 Xrotation Yrotation Zrotation
		JOINT LeftUpLeg
		{
			OFFSET 18.735201 -5.666702 -4.541200
			CHANNELS 3 Xrotation Yrotation Zrotation
			JOINT LeftLeg
			{
				OFFSET -0.021200 -31.938179 0.493100
				CHANNELS 3 Xrotation Yrotation Zrotation
				JOINT LeftFoot
				{
					OFFSET 0.021200 -31.938179 -4.336299
					CHANNELS 3 Xrotation Yrotation Zrotation
					JOINT LeftToeBase
					{
						OFFSET 0.943001 -26.722000 15.023500
						CHANNELS 3 Xrotation Yrotation Zrotation
						End Site
						{
							OFFSET 0 0 0
						}
					}
				}
			}
		}
	}
	JOINT RightUpLeg_virtual
	{
		OFFSET 0.000000 0.000000 0.000000
		CHANNELS 3 Xrotation Yrotation Zrotation
		JOINT RightUpLeg
		{
			OFFSET -18.735201 -5.666702 -4.541200
			CHANNELS 3 Xrotation Yrotation Zrotation
			JOINT RightLeg
			{
				OFFSET 0.018946 -31.938133 0.493100
				CHANNELS 3 Xrotation Yrotation Zrotation
				JOINT RightFoot
				{
					OFFSET -0.018946 -31.938126 -4.336299
					CHANNELS 3 Xrotation Yrotation Zrotation
					JOINT RightToeBase
					{
						OFFSET -0.943001 -26.722004 15.023500
						CHANNELS 3 Xrotation Yrotation Zrotation
						End Site
						{
							OFFSET 0 0 0
						}
					}
				}
			}
		}
	}
	JOINT Hips_virtual
	{
		OFFSET 0.000000 0.000000 0.000000
		CHANNELS 3 Xrotation Yrotation Zrotation
		JOINT Hips
		{
			OFFSET -0.000000 -0.000000 -0.000000
			CHANNELS 3 Xrotation Yrotation Zrotation
			JOINT Spine
			{
				OFFSET 0.000000 10.199997 -0.299500
				CHANNELS 3 Xrotation Yrotation Zrotation
				JOINT Spine1
				{
					OFFSET 0.000000 11.900002 -1.516600
					CHANNELS 3 Xrotation Yrotation Zrotation
					JOINT Spine2
					{
						OFFSET 0.000000 13.600006 -2.842500
						CHANNELS 3 Xrotation Yrotation Zrotation
						JOINT Neck_virtual
						{
							OFFSET 0.000000 0.000000 0.000000
							CHANNELS 3 Xrotation Yrotation Zrotation
							JOINT Neck
							{
								OFFSET 0.000000 9.624100 -2.890100
								CHANNELS 3 Xrotation Yrotation Zrotation
								JOINT Head
								{
									OFFSET 0.000000 14.068802 -1.351900
									CHANNELS 3 Xrotation Yrotation Zrotation
									End Site
									{
										OFFSET 0 0 0
									}
								}
							}
						}
						JOINT LeftShoulder_virtual
						{
							OFFSET 0.000000 0.000000 0.000000
							CHANNELS 3 Xrotation Yrotation Zrotation
							JOINT LeftShoulder
							{
								OFFSET 15.263000 10.923401 -0.547700
								CHANNELS 3 Xrotation Yrotation Zrotation
								JOINT LeftArm
								{
									OFFSET 25.438599 -2.830597 -13.032500
									CHANNELS 3 Xrotation Yrotation Zrotation
									JOINT LeftForeArm
									{
										OFFSET 29.960503 0.000000 0.000000
										CHANNELS 3 Xrotation Yrotation Zrotation
										JOINT LeftHand
										{
											OFFSET 27.849251 0.000000 0.000000
											CHANNELS 3 Xrotation Yrotation Zrotation
											End Site
											{
												OFFSET 0 0 0
											}
										}
									}
								}
							}
						}
						JOINT RightShoulder_virtual
						{
							OFFSET 0.000000 0.000000 0.000000
							CHANNELS 3 Xrotation Yrotation Zrotation
							JOINT RightShoulder
							{
								OFFSET -15.263000 10.923401 -0.547700
								CHANNELS 3 Xrotation Yrotation Zrotation
								JOINT RightArm
								{
									OFFSET -25.438599 -2.830597 -13.032500
									CHANNELS 3 Xrotation Yrotation Zrotation
									JOINT RightForeArm
									{
										OFFSET -29.960503 0.000000 0.000000
										CHANNELS 3 Xrotation Yrotation Zrotation
										JOINT RightHand
										{
											OFFSET -27.849251 0.000000 0.000000
											CHANNELS 3 Xrotation Yrotation Zrotation
											End Site
											{
												OFFSET 0 0 0
											}
										}
									}
								}
							}
						}
					}
				}
			}
		}
	}
}
MOTION
Frames: 4
Frame Time: 0.03333333
0.146526 84.193306 0.252935 0.000000 0.000000 0.000000 5.154552 -12.932354 0.940131 -35.562855 7.059619 17.199410 46.965364 -3.232246 -2.883839 -6.978908 -1.767940 -11.661670 0.000000 0.000000 0.000000 -1.720780 -3.174810 -1.710645 -33.389499 -3.747250 -17.019689 42.340042 2.079830 1.041745 -12.285181 -2.423613 14.648065 0.000000 0.000000 0.000000 -1.652393 -1.048407 -0.030121 -2.424435 9.633516 -2.614785 13.945318 0.091433 0.913062 6.285403 0.277509 0.538847 0.000000 0.000000 0.000000 3.069620 -0.071250 0.202997 -0.318421 0.149675 -0.024062 0.000000 0.000000 0.000000 7.634844 -0.359836 0.007476 3.758450 -8.683450 -6.651231 11.524276 -30.805485 -29.635224 21.691839 -58.112370 15.692824 0.000000 0.000000 0.000000 9.510867 -0.954795 2.546139 6.969622 1.886811 14.331509 13.190264 31.937049 31.355879 38.247700 75.189495 -34.026657 0.000000 0.000000 0.000000 
0.137297 84.206085 0.201107 0.000000 0.000000 0.000000 5.197926 -13.039553 0.990625 -35.515669 7.026049 17.237876 46.923697 -3.278199 -2.897519 -7.056884 -1.793051 -11.717381 0.000000 0.000000 0.000000 -1.762635 -3.092324 -1.719870 -33.432748 -3.714503 -17.014051 42.410858 2.047227 1.057116 -12.277106 -2.461387 14.638470 0.000000 0.000000 0.000000 -1.649852 -1.063667 -0.026991 -2.362924 9.918924 -2.696821 14.036412 0.009013 0.947235 6.336745 0.244411 0.580170 0.000000 0.000000 0.000000 3.047440 -0.106288 0.208860 -0.324943 0.145501 -0.032209 0.000000 0.000000 0.000000 7.618258 -0.402084 -0.000410 3.692851 -8.751229 -6.750597 11.911443 -30.886904 -29.441790 21.955148 -58.042934 15.773321 0.000000 0.000000 0.000000 9.514596 -0.997259 2.601418 6.995436 1.679388 14.476458 12.898110 31.836383 31.419533 38.168678 75.346583 -34.024038 0.000000 0.000000 0.000000 
0.130729 84.238640 0.102532 0.000000 0.000000 0.000000 5.279527 -13.244966 1.075782 -35.425527 6.965528 17.299037 46.851129 -3.362145 -2.918807 -7.193513 -1.840738 -11.814374 0.000000 0.000000 0.000000 -1.837237 -2.937776 -1.738756 -33.509909 -3.653507 -17.005663 42.515411 1.987856 1.085795 -12.277987 -2.531394 14.619977 0.000000 0.000000 0.000000 -1.643937 -1.107275 -0.015610 -2.256142 10.456860 -2.832910 14.207851 -0.146891 1.014929 6.438286 0.176906 0.656614 0.000000 0.000000 0.000000 3.004702 -0.173346 0.223341 -0.335932 0.135114 -0.045325 0.000000 0.000000 0.000000 7.589115 -0.485370 -0.014181 3.570105 -8.885995 -6.923812 12.661664 -31.020107 -29.104864 22.428410 -57.898831 15.883987 0.000000 0.000000 0.000000 9.523066 -1.079022 2.703979 7.042981 1.293018 14.729171 12.296191 31.632450 31.575241 37.920066 75.632611 -33.913515 0.000000 0.000000 0.000000 
0.142446 84.300598 -0.031234 0.000000 0.000000 0.000000 5.391548 -13.529222 1.170693 -35.297769 6.889688 17.358161 46.763812 -3.470130 -2.937729 -7.357668 -1.906232 -11.928619 0.000000 0.000000 0.000000 -1.927999 -2.732841 -1.767594 -33.603506 -3.573356 -16.999241 42.592206 1.911361 1.124850 -12.315827 -2.624819 14.594651 0.000000 0.000000 0.000000 -1.631909 -1.195747 0.011379 -2.129587 11.190034 -2.983190 14.440821 -0.360863 1.113797 6.585085 0.073789 0.757957 0.000000 0.000000 0.000000 2.943614 -0.267634 0.250911 -0.348568 0.115184 -0.057959 0.000000 0.000000 0.000000 7.553559 -0.607492 -0.030261 3.404963 -9.088712 -7.128679 13.728270 -31.160211 -28.710273 23.022606 -57.671611 15.942698 0.000000 0.000000 0.000000 9.537644 -1.194588 2.840164 7.105558 0.774799 15.028329 11.355955 31.324409 31.867737 37.358126 76.007950 -33.529105 0.000000 0.000000 0.000000 
